<svg width="24" height="24" viewBox="0 0 24 24" fill="none" xmlns="http://www.w3.org/2000/svg">
<g clip-path="url(#clip0_67_278)">
<path d="M5.33382 12.9365L16.0141 23.6166C16.2611 23.8638 16.5909 24 16.9425 24C17.2941 24 17.6239 23.8638 17.8709 23.6166L18.6574 22.8303C19.1692 22.3179 19.1692 21.4851 18.6574 20.9735L9.68891 12.005L18.6674 3.02651C18.9144 2.77929 19.0508 2.44974 19.0508 2.09832C19.0508 1.74652 18.9144 1.41696 18.6674 1.16955L17.8808 0.383411C17.6336 0.136194 17.3041 -1.52703e-07 16.9525 -1.83441e-07C16.6009 -2.1418e-07 16.2711 0.136194 16.0241 0.383411L5.33382 11.0733C5.08621 11.3213 4.95021 11.6524 4.951 12.0044C4.95021 12.3578 5.08621 12.6887 5.33382 12.9365Z" fill="white"/>
</g>
<defs>
<clipPath id="clip0_67_278">
<rect width="24" height="24" fill="white" transform="translate(24 24) rotate(-180)"/>
</clipPath>
</defs>
</svg>
